# AST/ASF file generated using VICON BodyLanguage
# -----------------------------------------------
:version 1.10
:name VICON
:units
  mass 1.0
  length 0.45
  angle deg
:documentation
   .ast/.asf automatically generated from VICON data using
   VICON BodyBuilder and BodyLanguage model FoxedUp or BRILLIANT.MOD
:root
   order TX TY TZ RX RY RZ
   axis XYZ
   position 0 0 0  
   orientation 0 0 0 
:bonedata
  begin
     id 1 
     name lhipjoint
     direction 0.541323 -0.757556 0.364798 
     length 2.47576 
     axis 0 0 0  XYZ
  end
  begin
     id 2 
     name lfemur
     direction 0.34202 -0.939693 0  
     length 7.46493  
     axis 0 0 20  XYZ
    dof rx ry rz
    limits (-160.0 20.0)
           (-70.0 70.0)
           (-60.0 70.0)
  end
  begin
     id 3 
     name ltibia
     direction 0.34202 -0.939693 0   
     length 7.73805   
     axis 0 0 20   XYZ
    dof rx
    limits (-10.0 170.0)
  end
  begin
     id 4 
     name lfoot
     direction 0.107174 -0.294458 0.949636   
     length 2.25864   
     axis -90 7.62852e-016 20   XYZ
    dof rx rz
    limits (-45.0 90.0)
           (-70.0 20.0)
  end
  begin
     id 5 
     name ltoes
     direction 1.53606e-011 -4.21934e-011 1   
     length 1.12451   
     axis -90 7.62852e-016 20   XYZ
    dof rx
    limits (-90.0 20.0)
  end
  begin
     id 6 
     name rhipjoint
     direction -0.524745 -0.766967 0.36933   
     length 2.44538  
     axis 0 0 0  XYZ 
  end
  begin
     id 7 
     name rfemur
     direction -0.34202 -0.939693 0   
     length 7.61604   
     axis 0 0 -20   XYZ
    dof rx ry rz
    limits (-160.0 20.0)
           (-70.0 70.0)
           (-70.0 60.0)
  end
  begin
     id 8 
     name rtibia
     direction -0.34202 -0.939693 0   
     length 7.61056   
     axis 0 0 -20   XYZ
    dof rx
    limits (-10.0 170.0)
 end
 begin
     id 9 
     name rfoot
     direction -0.12616 -0.346623 0.929482   
     length 2.46372  
     axis -90 -7.62852e-016 -20   XYZ
    dof rx rz
    limits (-45.0 90.0)
           (-20.0 70.0)
  end
  begin
     id 10 
     name rtoes
     direction -1.53531e-011 -4.22004e-011 1   
     length 1.21611   
     axis -90 -7.62852e-016 -20   XYZ
    dof rx
    limits (-90.0 20.0)
  end
  begin
     id 11 
     name lowerback
     direction -0.000778023 0.997293 -0.0735223   
     length 2.06139   
     axis 0 0 0   XYZ
    dof rx ry rz
    limits (-20.0 45.0)
           (-30.0 30.0)
           (-30.0 30.0)
  end
  begin
     id 12 
     name upperback
     direction 0.0222598 0.999722 -0.0078355   
     length 2.06383   
     axis 0 0 0   XYZ
    dof rx ry rz
    limits (-20.0 45.0)
           (-30.0 30.0)
           (-30.0 30.0)
  end
  begin
     id 13 
     name thorax
     direction 0.0219654 0.999405 0.0265994   
     length 2.07163   
     axis 0 0 0   XYZ
    dof rx ry rz
    limits (-20.0 45.0)
           (-30.0 30.0)
           (-30.0 30.0)
  end
  begin
     id 14 
     name lowerneck
     direction 0.0213282 0.988147 0.15202   
     length 1.75969   
     axis 0 0 0   XYZ
    dof rx ry rz
    limits (-20.0 45.0)
           (-30.0 30.0)
           (-30.0 30.0)
  end
  begin
     id 15 
     name upperneck
     direction -0.0546456 0.982624 -0.177379   
     length 1.79244   
     axis 0 0 0   XYZ
    dof rx ry rz
    limits (-20.0 45.0)
           (-30.0 30.0)
           (-30.0 30.0)
  end
  begin
     id 16
     name head
     direction -0.0199987 0.996855 -0.076686  
     length 1.80555  
     axis 0 0 0   XYZ
    dof rx ry rz
    limits (-20.0 45.0)
           (-30.0 30.0)
           (-30.0 30.0)
  end
  begin
     id 17 
     name lclavicle
     direction 0.929565 0.363219 -0.063096  
     length 3.55722  
     axis 0 0 0   XYZ
    dof ry rz
    limits (-20.0 10.0)
           (0.0 20.0)
  end
  begin
     id 18 
     name lhumerus
     direction 1 -4.48993e-011 -2.36203e-027   
     length 4.92785   
     axis 180 -30 -90   XYZ
    dof rx ry rz
    limits (-60.0 90.0)
           (-90.0 90.0)
           (-90.0 90.0)
  end
  begin
     id 19
     name lradius
     direction 1 -4.48947e-011 2.02997e-027   
     length 3.44052   
     axis 180 -30 -90   XYZ
    dof rx
    limits (-10.0 170.0)
  end
  begin
     id 20
     name lwrist
     direction 1 -4.48962e-011 1.45991e-027   
     length 1.72026   
     axis 1.49639e-024 90 90   XYZ
    dof ry
    limits (-180.0 0.0)
 end
  begin
     id 21 
     name lhand
     direction 1 -4.48984e-011 2.91906e-027   
     length 0.654326   
     axis -1.863e-015 90 90   XYZ
    dof rx rz
    limits (-90.0 90.0)
           (-45.0 45.0)
  end
  begin
     id 22 
     name lfingers
     direction 1 -4.48961e-011 5.83968e-027   
     length 0.527534   
     axis -3.72598e-015 90 90   XYZ
    dof rx
    limits (0.0 90.0)
  end
  begin
     id 23
     name lthumb
     direction 0.707107 -6.34963e-011 0.707107   
     length 0.757437   
     axis -90 45 -6.68868e-015   XYZ
    dof rx rz
    limits (-45.0 45.0)
           (-45.0 45.0)
  end
  begin
     id 24 
     name rclavicle
     direction -0.902944 0.422599 -0.0781198   
     length 3.54432  
     axis 0 0 0   XYZ 
    dof ry rz
    limits (-10.0 20.0)
           (-20.0 0.0)
  end
  begin
     id 25 
     name rhumerus
     direction -1 -4.48953e-011 -4.75835e-028  
     length 5.09181   
     axis 180 30 90   XYZ
    dof rx ry rz
    limits (-90.0 60.0)
           (-90.0 90.0)
           (-90.0 90.0)
  end
  begin
     id 26 
     name rradius
     direction -1 -4.48986e-011 -3.25889e-027   
     length 3.49865   
     axis 180 30 90   XYZ
    dof rx
    limits (-10.0 170.0)
  end
  begin
     id 27 
     name rwrist
     direction -1 -4.48963e-011 1.45989e-027   
     length 1.74933   
     axis 1.49639e-024 -90 -90   XYZ
    dof ry
    limits (-180.0 0.0)
  end
  begin
     id 28
     name rhand
     direction -1 -4.49003e-011 2.91844e-027   
     length 0.66641   
     axis -1.863e-015 -90 -90   XYZ
    dof rx rz
    limits (-90.0 90.0)
           (-45.0 45.0)
  end
  begin
     id 29
     name rfingers
     direction -1 -4.48973e-011 5.83886e-027   
     length 0.537277   
     axis -3.72598e-015 -90 -90   XYZ
    dof rx
    limits (0.0 90.0)
  end
  begin
     id 30
     name rthumb
     direction -0.707107 -6.34976e-011 0.707107   
     length 0.771425   
     axis -90 -45 6.68868e-015   XYZ
    dof rx rz
    limits (-45.0 45.0)
           (-45.0 45.0)
  end
:hierarchy
  begin
    root lhipjoint rhipjoint lowerback
    lhipjoint lfemur
    lfemur ltibia
    ltibia lfoot
    lfoot ltoes
    rhipjoint rfemur
    rfemur rtibia
    rtibia rfoot
    rfoot rtoes
    lowerback upperback
    upperback thorax
    thorax lowerneck lclavicle rclavicle
    lowerneck upperneck
    upperneck head
    lclavicle lhumerus
    lhumerus lradius
    lradius lwrist
    lwrist lhand lthumb
    lhand lfingers
    rclavicle rhumerus
    rhumerus rradius
    rradius rwrist
    rwrist rhand rthumb
    rhand rfingers
  end

#!OML:ASF H:\LiuWeirdWalks\Patient Classification 1\Patient 1\Session 1\male.ASF
:FULLY-SPECIFIED
:DEGREES
63
root 0.550165 17.8799 -30.5322 3.86971 4.56367 -0.65408
lowerback 1.61048 0.718983 -2.11176
upperback -3.1191 0.907725 0.621095
thorax -4.16055 0.531174 1.77666
lowerneck -21.3585 -0.713719 6.19743
upperneck 25.3723 -1.91421 -4.34967
head 11.7423 -0.828529 -2.97721
rclavicle -6.41857e-015 -1.39149e-015
rhumerus -33.1129 -13.3105 -79.573
rradius 22.7386
rwrist 1.24042
rhand -16.9518 -2.3888
rfingers 7.12502
rthumb 9.28186 -32.1645
lclavicle -6.41857e-015 -1.39149e-015
lhumerus -32.6382 0.888058 87.1109
lradius 22.4982
lwrist 4.35373
lhand -11.5974 1.22981
lfingers 7.12502
lthumb 14.445 30.7071
rfemur -11.6067 -1.11273 19.6476
rtibia 32.5634
rfoot -16.6065 -21.4239
rtoes -2.90733
lfemur -9.02445 -1.50639 -18.3102
ltibia 26.9444
lfoot -13.697 14.0565
ltoes -9.5605
64
root 0.550085 17.8797 -30.531 3.88721 4.49934 -0.673229
lowerback 1.61658 0.723012 -2.08137
upperback -3.1189 0.914595 0.634714
thorax -4.16381 0.533891 1.77323
lowerneck -21.3774 -0.706126 6.18513
upperneck 25.4768 -1.89651 -4.36087
head 11.7874 -0.821256 -2.98017
rclavicle 7.40473e-015 3.32964e-015
rhumerus -33.1272 -13.325 -79.5704
rradius 22.7265
rwrist 1.23827
rhand -16.9428 -2.34059
rfingers 7.12502
rthumb 9.29057 -32.1159
lclavicle 7.40473e-015 3.32964e-015
lhumerus -32.6259 0.890141 87.1003
lradius 22.5045
lwrist 4.40245
lhand -11.584 1.2959
lfingers 7.12502
lthumb 14.4579 30.7722
rfemur -11.6358 -1.0824 19.6656
rtibia 32.563
rfoot -16.5966 -21.4018
rtoes -2.88418
lfemur -9.03483 -1.49613 -18.2935
ltibia 26.95
lfoot -13.7031 14.1043
ltoes -9.57842
65
root 0.550089 17.8793 -30.5297 3.90564 4.42942 -0.684597
lowerback 1.6258 0.730548 -2.05817
upperback -3.11938 0.925755 0.646408
thorax -4.16984 0.538975 1.77159
lowerneck -21.3863 -0.695805 6.1796
upperneck 25.5572 -1.87535 -4.37665
head 11.8214 -0.812839 -2.98453
rclavicle -1.30111e-014 -1.63749e-014
rhumerus -33.1447 -13.3442 -79.5605
rradius 22.7117
rwrist 1.24396
rhand -16.9397 -2.27254
rfingers 7.12502
rthumb 9.29354 -32.0477
lclavicle -1.30111e-014 -1.63749e-014
lhumerus -32.6195 0.889886 87.0922
lradius 22.5181
lwrist 4.43154
lhand -11.5346 1.30346
lfingers 7.12502
lthumb 14.5055 30.7764
rfemur -11.6688 -1.04895 19.674
rtibia 32.5673
rfoot -16.5911 -21.3781
rtoes -2.84087
lfemur -9.04394 -1.48631 -18.2864
ltibia 26.9549
lfoot -13.7114 14.1567
ltoes -9.58726
66
root 0.55016 17.8788 -30.5286 3.92715 4.35362 -0.692557
lowerback 1.63398 0.741464 -2.03962
upperback -3.11937 0.941341 0.659403
thorax -4.17509 0.546421 1.77367
lowerneck -21.3833 -0.684198 6.17888
upperneck 25.6042 -1.85109 -4.40024
head 11.8402 -0.804253 -2.99091
rclavicle 3.16596e-014 1.52567e-014
rhumerus -33.1648 -13.3643 -79.542
rradius 22.7001
rwrist 1.25988
rhand -16.9332 -2.20885
rfingers 7.12502
rthumb 9.29984 -31.9837
lclavicle 3.16596e-014 1.52567e-014
lhumerus -32.6146 0.883696 87.0926
lradius 22.5398
lwrist 4.474
lhand -11.4638 1.26923
lfingers 7.12502
lthumb 14.5736 30.7372
rfemur -11.7097 -1.01468 19.6775
rtibia 32.5787
rfoot -16.5978 -21.3511
rtoes -2.77636
lfemur -9.05434 -1.47656 -18.2838
ltibia 26.9583
lfoot -13.7234 14.2118
ltoes -9.58188
67
root 0.550279 17.8782 -30.5277 3.95182 4.27864 -0.692162
lowerback 1.64472 0.765233 -2.02074
upperback -3.11043 0.973509 0.656105
thorax -4.17297 0.561656 1.75786
lowerneck -21.4133 -0.692068 6.17944
upperneck 25.6537 -1.86222 -4.40715
head 11.8644 -0.809245 -2.99745
rclavicle 3.74041e-015 -8.4235e-015
rhumerus -33.1772 -13.4384 -79.5224
rradius 22.6944
rwrist 1.29144
rhand -16.9279 -2.1577
rfingers 7.12502
rthumb 9.30493 -31.9324
lclavicle 3.74041e-015 -8.4235e-015
lhumerus -32.5804 0.824242 87.0944
lradius 22.5431
lwrist 4.46835
lhand -11.4119 1.11875
lfingers 7.12502
lthumb 14.6237 30.5831
rfemur -11.7578 -0.980941 19.6713
rtibia 32.5997
rfoot -16.6192 -21.3245
rtoes -2.68944
lfemur -9.06735 -1.46783 -18.2906
ltibia 26.9609
lfoot -13.738 14.2666
ltoes -9.56423
68
root 0.550417 17.8774 -30.5271 3.98148 4.20807 -0.678997
lowerback 1.64259 0.781834 -2.0183
upperback -3.09106 0.996018 0.659369
thorax -4.15267 0.572439 1.7588
lowerneck -21.4363 -0.693285 6.17508
upperneck 25.6687 -1.8577 -4.42794
head 11.8748 -0.810258 -3.00474
rclavicle 6.31801e-015 -4.75841e-015
rhumerus -33.1628 -13.4954 -79.4999
rradius 22.684
rwrist 1.3308
rhand -16.9221 -2.13245
rfingers 7.12502
rthumb 9.31051 -31.9069
lclavicle 6.31801e-015 -4.75841e-015
lhumerus -32.5234 0.784154 87.1039
lradius 22.5364
lwrist 4.44551
lhand -11.3952 0.939061
lfingers 7.12502
lthumb 14.6397 30.4023
rfemur -11.8146 -0.954846 19.6502
rtibia 32.6323
rfoot -16.6553 -21.2941
rtoes -2.58315
lfemur -9.08654 -1.45658 -18.3108
ltibia 26.9631
lfoot -13.7542 14.3159
ltoes -9.52852
69
root 0.550321 17.8763 -30.5269 4.01659 4.1417 -0.657425
lowerback 1.64288 0.793824 -2.02447
upperback -3.07203 1.01201 0.663053
thorax -4.13399 0.580279 1.76534
lowerneck -21.4587 -0.692151 6.16816
upperneck 25.6799 -1.84795 -4.45185
head 11.8838 -0.809688 -3.01184
rclavicle 2.50849e-014 1.32316e-014
rhumerus -33.1371 -13.5464 -79.4816
rradius 22.6717
rwrist 1.37026
rhand -16.908 -2.13529
rfingers 7.12502
rthumb 9.32413 -31.9091
lclavicle 2.50849e-014 1.32316e-014
lhumerus -32.4655 0.744849 87.1148
lradius 22.5299
lwrist 4.39496
lhand -11.4228 0.772167
lfingers 7.12502
lthumb 14.6131 30.2373
rfemur -11.8824 -0.931886 19.6208
rtibia 32.6782
rfoot -16.7081 -21.2648
rtoes -2.46
lfemur -9.11418 -1.43816 -18.3379
ltibia 26.9653
lfoot -13.7723 14.3526
ltoes -9.49244
